<svg width="24" height="21" viewBox="0 0 24 21" fill="#787D85" xmlns="http://www.w3.org/2000/svg">
<path d="M12 11.1449L5.67188 8.60388V10.4397C5.67188 12.444 8.39236 13.9553 12 13.9553C15.6076 13.9553 18.3281 12.444 18.3281 10.4397V8.60388L12 11.1449Z"/>
<path d="M24 14.6585C24 13.743 23.4104 12.9698 22.5938 12.6786V5.39452L24 4.81472L12 0L0 4.81472L12 9.62949L21.1875 5.95917V12.6786C20.3708 12.9698 19.7812 13.743 19.7812 14.6585C19.7812 15.4966 20.2762 16.216 20.986 16.556L19.8177 20.061L21.1511 20.5059L21.8906 18.2874L22.6301 20.5059L23.9636 20.061L22.7953 16.556C23.505 16.2161 24 15.4966 24 14.6585Z" />
</svg>
